<svg width="22" height="22" viewBox="0 0 22 22" fill="none" xmlns="http://www.w3.org/2000/svg">
<path d="M11 1.11111C9.29149 1.11111 8.16809 0 6.0266 0C2.59787 0 0 2.6 0 6C0 8.28889 0.748936 10.2 2.08298 11.9333C3.06596 13.2 3.44043 15.3778 3.75638 17.3556C4.28298 20.6778 5.5117 22 7.1617 22C8.90532 22 9.46702 20.2444 10.017 17.8667C10.333 16.4667 10.5904 15.4667 11 15.4667C11.4096 15.4667 11.667 16.4667 11.983 17.8667C12.533 20.2444 13.0947 22 14.8383 22C16.4883 22 17.717 20.6778 18.2436 17.3556C18.5596 15.3778 18.934 13.2 19.917 11.9333C21.2511 10.2 22 8.28889 22 6C22 2.6 19.4021 0 15.9734 0C13.8319 0 12.7085 1.11111 11 1.11111Z" fill="black"/>
</svg>
